<svg width="23.999999999999996" height="23.999999999999996" xmlns="http://www.w3.org/2000/svg">

 <g>
  <title>background</title>
  <rect fill="none" id="canvas_background" height="402" width="582" y="-1" x="-1"/>
 </g>
 <g>
  <title>Layer 1</title>
  <path fill="#ffffff" id="svg_1" d="m12,3c0,0 -6.186,5.34 -9.643,8.232c-0.203,0.184 -0.357,0.452 -0.357,0.768c0,0.553 0.447,1 1,1l2,0l0,7c0,0.552999 0.447,1 1,1l3,0c0.553,0 1,-0.448 1,-1l0,-4l4,0l0,4c0,0.552 0.447,1 1,1l3,0c0.552999,0 1,-0.447001 1,-1l0,-7l2,0c0.552999,0 1,-0.447 1,-1c0,-0.316 -0.153999,-0.584 -0.382999,-0.768c-3.433001,-2.892 -9.617001,-8.232 -9.617001,-8.232z"/>
 </g>
</svg>